<svg width="22" height="25" viewBox="0 0 22 25" fill="none" xmlns="http://www.w3.org/2000/svg">
<path d="M21.4571 16.9537C21.3663 16.8445 21.2772 16.7353 21.1898 16.6298C19.9871 15.1763 19.2594 14.2991 19.2594 10.1845C19.2594 8.0542 18.7494 6.3063 17.7441 4.99538C17.0028 4.02693 16.0007 3.29227 14.6799 2.74933C14.6629 2.73988 14.6478 2.72749 14.6351 2.71273C14.16 1.12323 12.86 0.0586548 11.3939 0.0586548C9.92767 0.0586548 8.62822 1.12323 8.15316 2.71109C8.14048 2.72531 8.12551 2.73731 8.10888 2.7466C5.02671 4.01437 3.52882 6.44668 3.52882 10.1828C3.52882 14.2991 2.80228 15.1763 1.5985 16.6282C1.51103 16.7336 1.42192 16.8407 1.33118 16.9521C1.09676 17.2346 0.94824 17.5782 0.90319 17.9424C0.85814 18.3065 0.918446 18.676 1.07697 19.007C1.41427 19.7171 2.13315 20.1579 2.95371 20.1579H19.84C20.6568 20.1579 21.3707 19.7176 21.7091 19.0108C21.8683 18.6797 21.9292 18.31 21.8845 17.9454C21.8399 17.5808 21.6915 17.2367 21.4571 16.9537ZM11.3939 24.5292C12.1838 24.5286 12.9589 24.3143 13.6369 23.9092C14.3148 23.5041 14.8704 22.9231 15.2446 22.228C15.2623 22.1947 15.271 22.1574 15.2699 22.1197C15.2689 22.0821 15.2581 22.0453 15.2386 22.013C15.2191 21.9808 15.1916 21.9541 15.1588 21.9356C15.1259 21.9171 15.0888 21.9074 15.0511 21.9074H7.73768C7.69992 21.9073 7.66277 21.9169 7.62984 21.9354C7.59692 21.9538 7.56934 21.9805 7.5498 22.0128C7.53026 22.0451 7.51942 22.0819 7.51833 22.1196C7.51725 22.1573 7.52596 22.1947 7.54361 22.228C7.91783 22.923 8.47332 23.5039 9.15117 23.9091C9.82903 24.3142 10.604 24.5285 11.3939 24.5292Z" fill="#2F4C9E"/>
</svg>
