<svg width="25" height="25" viewBox="0 0 25 25" fill="none" xmlns="http://www.w3.org/2000/svg">
<g clip-path="url(#clip0_188_19857)">
<path fill-rule="evenodd" clip-rule="evenodd" d="M17.4122 0.00281211C17.5967 0.00163708 17.706 0.0298377 17.847 0.117965C17.9504 0.182591 18.0773 0.303619 18.129 0.388221C18.1807 0.471647 18.2359 0.615001 18.2512 0.705477C18.2676 0.795954 18.2559 0.965158 18.2253 1.08149C18.1959 1.19781 18.0726 1.66312 17.9515 2.11551C17.7718 2.79115 17.706 2.96623 17.5896 3.09665C17.5109 3.18361 17.3887 3.28466 17.3182 3.31991C17.2465 3.35516 17.0832 3.38454 16.9539 3.38454C16.8247 3.38454 16.6602 3.35516 16.5897 3.31991C16.518 3.28466 16.4017 3.18948 16.3312 3.10841C16.2595 3.02733 16.1784 2.87105 16.1502 2.76177C16.1032 2.57964 16.122 2.47154 16.3641 1.5515C16.5098 0.995709 16.6708 0.471647 16.7213 0.388221C16.7718 0.303619 16.8928 0.183766 16.9892 0.120315C17.1173 0.0380629 17.2336 0.00516216 17.4122 0.00281211ZM11.5958 3.37279C11.8414 3.38219 12.2221 3.41039 12.4418 3.43506C12.6616 3.46091 13.0634 3.52554 13.3349 3.57842C13.6063 3.63247 14.1245 3.77347 14.4864 3.89215C14.8553 4.01318 15.444 4.25758 15.8259 4.44793C16.2008 4.63476 16.6907 4.91089 16.9152 5.0613C17.1396 5.2117 17.4886 5.46551 17.6907 5.62531C17.8928 5.78629 18.2852 6.14585 18.5614 6.42433C18.8375 6.70398 19.1736 7.07059 19.3087 7.23862C19.4426 7.40665 19.7 7.76621 19.8798 8.03764C20.0595 8.30907 20.3486 8.81668 20.5213 9.16566C20.6941 9.51465 20.9232 10.0646 21.0313 10.3877C21.1382 10.7108 21.271 11.1761 21.325 11.4217C21.3803 11.6673 21.4566 12.0903 21.4954 12.3617C21.5365 12.6508 21.5659 13.2054 21.5659 13.7013C21.5659 14.3146 21.5401 14.7282 21.4696 15.2053C21.4155 15.5672 21.3192 16.0642 21.2545 16.3098C21.1887 16.5554 21.0595 16.9678 20.9667 17.2263C20.8738 17.4848 20.6741 17.9502 20.5237 18.2604C20.3733 18.5706 20.0819 19.0782 19.8762 19.3884C19.6706 19.6986 19.3334 20.1533 19.1277 20.3989C18.9221 20.6445 18.5661 21.0217 18.3358 21.2379C18.1055 21.4541 17.7271 21.7749 17.4945 21.9499C17.2618 22.125 16.9022 22.3741 16.6954 22.5022C16.4886 22.6303 16.1232 22.8336 15.8847 22.9534C15.645 23.0733 15.2384 23.2566 14.9799 23.36C14.7214 23.4634 14.2291 23.6208 13.8871 23.7101C13.544 23.7983 12.9683 23.9169 12.6063 23.9722C12.0541 24.0568 11.805 24.0697 11.0553 24.0532C10.536 24.0415 9.96489 24.0004 9.69229 23.9545C9.43378 23.9111 8.97904 23.8147 8.68176 23.7407C8.38448 23.6655 7.92975 23.5257 7.67124 23.4293C7.41274 23.3329 7.01088 23.1637 6.77822 23.0521C6.54557 22.9405 6.15428 22.729 5.9087 22.5809C5.66312 22.4329 5.26126 22.1638 5.01568 21.9817C4.7701 21.7984 4.28247 21.3636 3.93114 21.0123C3.58098 20.6621 3.12977 20.1533 2.92884 19.8819C2.72791 19.6105 2.42945 19.1557 2.26495 18.8714C2.10044 18.587 1.85839 18.1053 1.72796 17.8021C1.59753 17.4978 1.41893 17.0113 1.32963 16.7211C1.2415 16.4297 1.12635 15.9597 1.0723 15.6753C1.01942 15.3909 0.95362 14.9362 0.926594 14.6648C0.900743 14.3934 0.878418 13.9598 0.878418 13.7013C0.878418 13.4428 0.900743 13.0092 0.927769 12.7377C0.954795 12.4663 1.00885 12.075 1.04645 11.8682C1.08405 11.6614 1.16865 11.2913 1.23328 11.0457C1.29908 10.8001 1.43891 10.3665 1.54466 10.0822C1.65041 9.79783 1.84429 9.35367 1.97354 9.09516C2.10279 8.83666 2.3143 8.45595 2.44238 8.24914C2.57046 8.04234 2.82074 7.68278 2.99581 7.45013C3.17207 7.21747 3.49285 6.83911 3.70788 6.60881C3.92291 6.3785 4.30009 6.02129 4.54567 5.81684C4.79125 5.61121 5.20369 5.30218 5.46219 5.12827C5.7207 4.95437 6.11198 4.71584 6.33171 4.59599C6.55144 4.47731 6.96388 4.28108 7.24823 4.16005C7.53259 4.03903 8.01905 3.8663 8.32926 3.77699C8.63946 3.68769 9.1365 3.57254 9.43378 3.51966C9.73106 3.46796 10.2387 3.41039 10.5618 3.39041C10.8849 3.37161 11.3502 3.36339 11.5958 3.37279ZM5.17431 10.5052C5.10146 10.6297 5.06386 10.7696 5.06386 10.9165C5.06269 11.0387 5.09911 11.2173 5.14494 11.3124C5.18959 11.4076 5.29064 11.5322 5.36819 11.5909C5.44574 11.6497 6.20716 11.9293 7.06023 12.2137C7.9133 12.4969 8.66884 12.7413 8.74052 12.7565C8.81102 12.7718 8.95437 12.7636 9.05777 12.7377C9.16117 12.7119 9.31158 12.632 9.39265 12.5615C9.47373 12.4898 9.57243 12.3688 9.61121 12.2912C9.64998 12.2137 9.68171 12.0551 9.68171 11.9387C9.68054 11.8212 9.63941 11.6426 9.58771 11.5392C9.53601 11.4358 9.4326 11.3101 9.3574 11.2607C9.28338 11.2114 8.50316 10.9306 7.62424 10.638C6.74532 10.3454 5.95218 10.1057 5.8617 10.1057C5.77123 10.1057 5.60437 10.1539 5.49039 10.2114C5.35997 10.2784 5.24364 10.3865 5.17431 10.5052ZM13.1151 11.2596C13.0423 11.3136 12.9342 11.4511 12.8766 11.5651C12.8179 11.6802 12.7709 11.8482 12.7709 11.9387C12.772 12.0292 12.819 12.1961 12.8778 12.31C12.9354 12.424 13.0352 12.5544 13.0999 12.6003C13.1645 12.6449 13.3125 12.7072 13.4289 12.7377C13.6357 12.793 13.6768 12.7812 15.2384 12.2666C16.1173 11.9763 16.9105 11.699 17.0009 11.6497C17.0914 11.5991 17.2136 11.491 17.2724 11.4076C17.3311 11.3254 17.3911 11.1726 17.4075 11.0692C17.424 10.9588 17.4099 10.8036 17.3734 10.6932C17.3394 10.5898 17.2571 10.4429 17.1913 10.3677C17.1255 10.2925 17.0021 10.2032 16.9187 10.168C16.8341 10.1339 16.6755 10.1069 16.5662 10.1092C16.444 10.1116 15.7648 10.3148 14.8072 10.638C13.9494 10.927 13.188 11.2067 13.1151 11.2596ZM9.76279 16.0078C9.56891 16.0513 9.2305 16.1488 9.01077 16.2264C8.79104 16.3028 8.42091 16.4602 8.18825 16.5765C7.9556 16.6917 7.60779 16.8962 7.41391 17.0301C7.22121 17.1641 7.0144 17.3474 6.95448 17.4378C6.8734 17.5612 6.84637 17.667 6.84872 17.8609C6.8499 18.0395 6.8828 18.1769 6.95565 18.3038C7.02028 18.419 7.14013 18.5306 7.27173 18.6011C7.43506 18.6881 7.53846 18.7104 7.72529 18.6986C7.918 18.6869 8.02375 18.6446 8.2423 18.4918C8.39388 18.3861 8.65474 18.2228 8.82277 18.1299C8.9908 18.0359 9.35035 17.8867 9.62178 17.7962C9.89322 17.7057 10.2951 17.607 10.5148 17.5753C10.7569 17.5412 11.1364 17.5295 11.4783 17.5448C11.8602 17.5636 12.1939 17.6117 12.5123 17.694C12.7709 17.761 13.1727 17.9067 13.4054 18.0183C13.638 18.1288 13.9764 18.3191 14.1574 18.4413C14.3383 18.5635 14.5604 18.6763 14.6509 18.6916C14.7414 18.7057 14.8894 18.7045 14.9799 18.6881C15.0704 18.6716 15.2126 18.6058 15.2972 18.5412C15.3806 18.4777 15.4922 18.3403 15.5439 18.2369C15.5956 18.1335 15.6379 17.969 15.6391 17.8726C15.6391 17.7751 15.5897 17.6012 15.5286 17.4848C15.4464 17.3274 15.323 17.2087 15.0457 17.0207C14.8412 16.8821 14.4417 16.6565 14.1574 16.5201C13.873 16.3838 13.4606 16.2182 13.2409 16.1524C13.0211 16.0866 12.6616 15.9984 12.4418 15.9561C12.2221 15.915 11.7568 15.8727 11.4078 15.8633C11.0588 15.8539 10.6253 15.8645 10.4443 15.8868C10.2633 15.9103 9.95667 15.9644 9.76279 16.0078ZM24.1921 7.97536C24.2826 7.98829 24.4295 8.03411 24.5176 8.07641C24.6069 8.11989 24.7291 8.22917 24.789 8.31964C24.8501 8.41012 24.9124 8.56875 24.9277 8.67215C24.9429 8.77555 24.9335 8.93418 24.9053 9.02466C24.8771 9.11514 24.8102 9.24674 24.7585 9.31842C24.7056 9.38892 24.5834 9.48762 24.4859 9.5358C24.3543 9.60277 24.0734 9.64507 23.3696 9.70617C22.8526 9.75083 22.3332 9.7802 22.2157 9.7708C22.0747 9.75905 21.9419 9.70852 21.828 9.62392C21.7316 9.55225 21.6188 9.42534 21.5765 9.34192C21.5342 9.25731 21.4989 9.08341 21.4989 8.95416C21.4989 8.82491 21.5342 8.64983 21.5765 8.5664C21.6188 8.4818 21.7222 8.36195 21.8068 8.29967C21.8902 8.23739 22.0124 8.17277 22.0771 8.15632C22.1417 8.13986 22.607 8.08699 23.1111 8.03881C23.6152 7.99064 24.1016 7.96244 24.1921 7.97536ZM22.3826 2.63252C22.486 2.63369 22.6599 2.676 22.7703 2.7277C22.9055 2.78997 23.0077 2.88515 23.0864 3.02028C23.1651 3.15541 23.2039 3.29171 23.2039 3.44329C23.2051 3.56549 23.1675 3.74409 23.1228 3.8381C23.0676 3.95325 22.7903 4.21998 22.2886 4.64299C21.875 4.9908 21.4519 5.3151 21.3485 5.36328C21.2451 5.41146 21.0912 5.45141 21.0078 5.45141C20.9232 5.45258 20.7963 5.43026 20.7258 5.40206C20.6541 5.37503 20.5366 5.2963 20.4626 5.2258C20.3897 5.15648 20.2992 5.04132 20.2628 4.97082C20.2264 4.89914 20.197 4.72994 20.197 4.59481C20.197 4.44088 20.2287 4.29518 20.2828 4.20705C20.3286 4.1295 20.7046 3.78052 21.1159 3.43154C21.5283 3.08255 21.9384 2.75942 22.0301 2.71477C22.1205 2.66895 22.2792 2.63252 22.3826 2.63252Z" fill="#2F4C9E"/>
</g>
<defs>
<clipPath id="clip0_188_19857">
<rect width="24.1115" height="24.0645" fill="white" transform="translate(0.834473)"/>
</clipPath>
</defs>
</svg>
