<svg width="30" height="30" viewBox="0 0 30 30" fill="none" xmlns="http://www.w3.org/2000/svg">
<path d="M14.9062 16.9062C15.959 16.9062 16.8125 16.0528 16.8125 15C16.8125 13.9472 15.959 13.0938 14.9062 13.0938C13.8535 13.0938 13 13.9472 13 15C13 16.0528 13.8535 16.9062 14.9062 16.9062Z" fill="#909090"/>
<path d="M14.9062 23.2607C15.959 23.2607 16.8125 22.4073 16.8125 21.3545C16.8125 20.3017 15.959 19.4482 14.9062 19.4482C13.8535 19.4482 13 20.3017 13 21.3545C13 22.4073 13.8535 23.2607 14.9062 23.2607Z" fill="#909090"/>
<path d="M14.9062 10.5518C15.959 10.5518 16.8125 9.6983 16.8125 8.64551C16.8125 7.59272 15.959 6.73926 14.9062 6.73926C13.8535 6.73926 13 7.59272 13 8.64551C13 9.6983 13.8535 10.5518 14.9062 10.5518Z" fill="#909090"/>
</svg>
