<svg width="17" height="16" viewBox="0 0 17 16" fill="none" xmlns="http://www.w3.org/2000/svg">
<path d="M8.69697 2.45368C8.64425 2.40324 8.57409 2.37509 8.50112 2.37509C8.42815 2.37509 8.358 2.40324 8.30527 2.45368L1.78507 8.6824C1.75738 8.70889 1.73535 8.74072 1.72032 8.77596C1.70528 8.81121 1.69755 8.84914 1.6976 8.88746L1.69653 14.7333C1.69653 15.0339 1.81594 15.3222 2.02848 15.5347C2.24102 15.7472 2.52929 15.8667 2.82986 15.8667H6.2334C6.38369 15.8667 6.52782 15.8069 6.63409 15.7007C6.74036 15.5944 6.80006 15.4503 6.80006 15.3V10.4833C6.80006 10.4082 6.82991 10.3361 6.88305 10.283C6.93618 10.2298 7.00825 10.2 7.0834 10.2H9.91672C9.99187 10.2 10.0639 10.2298 10.1171 10.283C10.1702 10.3361 10.2001 10.4082 10.2001 10.4833V15.3C10.2001 15.4503 10.2598 15.5944 10.366 15.7007C10.4723 15.8069 10.6164 15.8667 10.7667 15.8667H14.1688C14.4694 15.8667 14.7577 15.7472 14.9702 15.5347C15.1828 15.3222 15.3022 15.0339 15.3022 14.7333V8.88746C15.3022 8.84914 15.2945 8.81121 15.2794 8.77596C15.2644 8.74072 15.2424 8.70889 15.2147 8.6824L8.69697 2.45368Z" fill="#2F4C9E"/>
<path d="M16.8197 7.51363L14.1705 4.97922V1.13333C14.1705 0.983042 14.1108 0.838908 14.0046 0.732638C13.8983 0.626367 13.7542 0.566665 13.6039 0.566665H11.9039C11.7536 0.566665 11.6095 0.626367 11.5032 0.732638C11.3969 0.838908 11.3372 0.983042 11.3372 1.13333V2.26666L9.28589 0.305291C9.09393 0.111208 8.80847 0 8.49999 0C8.19258 0 7.90783 0.111208 7.71587 0.305645L0.182763 7.51292C-0.0375281 7.72542 -0.0651531 8.07498 0.135305 8.30519C0.185643 8.3633 0.247278 8.41055 0.31646 8.44408C0.385642 8.47761 0.460923 8.49672 0.537722 8.50023C0.614521 8.50374 0.691232 8.49159 0.763185 8.46451C0.835138 8.43744 0.90083 8.396 0.956261 8.34273L8.3052 1.32033C8.35793 1.26989 8.42809 1.24174 8.50105 1.24174C8.57402 1.24174 8.64418 1.26989 8.69691 1.32033L16.0466 8.34273C16.1548 8.44655 16.2998 8.50321 16.4498 8.50029C16.5998 8.49737 16.7425 8.43511 16.8466 8.32715C17.0641 8.1019 17.046 7.73002 16.8197 7.51363Z" fill="#2F4C9E"/>
</svg>
