<svg width="25" height="25" viewBox="0 0 25 25" fill="none" xmlns="http://www.w3.org/2000/svg">
<path d="M12.499 0C13.3301 -0.00476119 14.4047 0.0672702 14.8965 0.160156C15.387 0.251854 16.148 0.445547 16.5869 0.59082C17.0257 0.734886 17.8776 1.10164 18.4775 1.40527C19.0775 1.70894 19.9682 2.27889 20.4551 2.67188C20.9431 3.06488 21.6313 3.70769 21.9854 4.10059C22.3393 4.49342 22.8137 5.08259 23.04 5.41016C23.265 5.73764 23.646 6.40878 23.8857 6.89941C24.1255 7.39126 24.4731 8.27481 24.6562 8.86426C24.9623 9.8452 24.9904 10.1111 24.999 12.0195C25.0076 13.8451 24.973 14.2302 24.7246 15.1162C24.5672 15.6736 24.1894 16.637 23.8857 17.2598C23.5808 17.8826 23.0718 18.7392 22.7559 19.1631C22.4398 19.5882 21.7935 20.3022 21.3203 20.751C20.847 21.2011 20.0449 21.8366 19.5371 22.1641C19.0307 22.4914 18.215 22.9424 17.7246 23.165C17.2341 23.3889 16.3765 23.7002 15.8184 23.8574C15.2602 24.0146 14.2513 24.2075 13.5752 24.2861C12.8597 24.3695 11.933 24.3953 11.3613 24.3477C10.8204 24.3036 10.0039 24.1905 9.54785 24.0977C9.09182 24.0048 8.56547 23.9289 8.37988 23.9277C8.19351 23.9269 7.46103 24.1494 6.75098 24.4219C6.04051 24.6933 5.2109 24.9432 4.90723 24.9766C4.41791 25.0313 4.33384 25.0046 4.18262 24.751C4.04884 24.5246 4.02985 24.1136 4.16992 21.1895L3.27539 20.2666C2.78485 19.7593 2.09259 18.8883 1.7373 18.3311C1.38326 17.7737 0.933719 16.8901 0.738281 16.3662C0.54158 15.8422 0.300495 15.0385 0.202148 14.5801C0.103798 14.1216 0.0130176 13.1295 0.00195312 12.377C-0.0115628 11.5196 0.0552659 10.6286 0.180664 9.99512C0.291325 9.43779 0.521503 8.60786 0.692383 8.14941C0.863232 7.69105 1.14112 7.04826 1.30957 6.7207C1.478 6.39322 1.87301 5.75124 2.18652 5.29395C2.50003 4.83665 3.11577 4.1073 3.55469 3.67383C3.99352 3.24045 4.60355 2.69938 4.90723 2.4707C5.2109 2.24206 5.79252 1.86405 6.19824 1.63184C6.60389 1.39968 7.37809 1.03695 7.91895 0.826172C8.4599 0.61658 9.37286 0.345649 9.94824 0.226562C10.617 0.0872791 11.5365 0.00595321 12.499 0ZM19.4092 8.74316C19.1879 8.69196 19.0079 8.74498 18.7939 8.9248C18.3904 9.26643 17.9603 9.61284 17.5703 10.0547C16.9453 10.7628 17.0545 10.7235 16.3525 11.4238C15.8047 11.9699 15.3795 12.3007 15.2549 12.2764C15.143 12.2549 14.8705 12.1612 14.6504 12.0684C13.8283 11.7258 13.7304 11.5976 12.9912 10.9609C12.5279 10.5627 12.0879 10.1867 11.6465 9.90625C11.274 9.67046 10.939 9.56743 10.4473 9.54004C10.1354 9.52253 9.4645 9.71605 9.18359 9.90625C8.96599 10.054 8.44091 10.6022 8.01562 11.126C7.41056 11.8713 6.86577 12.6364 6.34082 13.4189C5.91188 14.057 5.46945 14.7534 5.35742 14.9668C5.24555 15.1799 5.1664 15.516 5.18359 15.7148C5.22056 16.1393 5.70159 16.3095 6.0752 16.1777C6.27805 16.1051 7.08139 15.4434 7.8584 14.7051C8.63538 13.9668 9.50725 13.2477 9.79492 13.1084C10.1648 12.9287 10.3798 12.8853 10.5322 12.9639C10.6503 13.0246 10.8308 13.1049 10.9316 13.1406C11.0325 13.1776 11.253 13.3025 11.4189 13.418C11.9623 13.7962 12.5532 14.2583 13.1445 14.6797C13.7872 15.1379 14.4915 15.5834 14.7119 15.6719C14.932 15.7588 15.2916 15.8021 15.5117 15.7676C15.7318 15.7317 16.1271 15.531 16.3926 15.3203C16.6581 15.1095 17.0038 14.7356 17.1611 14.4902C17.8068 13.4858 18.3005 12.5002 19.0459 11.3555C19.3542 10.8813 19.5584 10.5531 19.7842 10.1143C19.9193 9.85246 20.0309 9.54415 20.0322 9.42969C20.0335 9.31536 19.9628 9.1305 19.8779 9.01855C19.7918 8.90794 19.5811 8.7837 19.4092 8.74316Z" fill="#909090"/>
</svg>
