<svg width="18" height="18" viewBox="0 0 18 18" fill="none" xmlns="http://www.w3.org/2000/svg">
<path d="M16.8635 4.45636L10.9119 10.4197C10.6818 10.6503 10.3991 10.8214 10.0881 10.9183L8.82349 11.3416C8.52335 11.4264 8.20605 11.4296 7.90427 11.3509C7.60249 11.2722 7.32716 11.1144 7.10663 10.8939C6.8861 10.6734 6.72837 10.3981 6.64967 10.0963C6.57098 9.7945 6.57418 9.47719 6.65894 9.17706L7.08227 7.91241C7.17883 7.60153 7.3496 7.31882 7.57983 7.08868L13.5432 1.13605C13.5979 1.08145 13.6351 1.01186 13.6502 0.936091C13.6653 0.860323 13.6576 0.781774 13.6281 0.710378C13.5986 0.638983 13.5485 0.577948 13.4843 0.534993C13.4201 0.492037 13.3446 0.469091 13.2673 0.469055H3.07739C2.35219 0.469055 1.65669 0.75714 1.1439 1.26994C0.631103 1.78273 0.343018 2.47823 0.343018 3.20343V14.9222C0.343018 15.6474 0.631103 16.3429 1.1439 16.8557C1.65669 17.3685 2.35219 17.6566 3.07739 17.6566H14.7961C15.5213 17.6566 16.2168 17.3685 16.7296 16.8557C17.2424 16.3429 17.5305 15.6474 17.5305 14.9222V4.73224C17.5305 4.65498 17.5075 4.57946 17.4646 4.51524C17.4216 4.45102 17.3606 4.40098 17.2892 4.37145C17.2178 4.34192 17.1392 4.33423 17.0635 4.34934C16.9877 4.36445 16.9181 4.4017 16.8635 4.45636Z" fill="#2F4C9E"/>
</svg>
